<svg width="114" height="29" viewBox="0 0 114 29" fill="none" xmlns="http://www.w3.org/2000/svg">
<path fill-rule="evenodd" clip-rule="evenodd" d="M73.8511 9.76553L49.7306 0.829306C49.4221 0.7153 49.0793 0.873058 48.9655 1.18182L46.2949 8.45071C46.1814 8.75948 46.3396 9.102 46.6484 9.2155L49.4448 10.2421L48.8288 11.9204C48.7155 12.2292 48.8738 12.5712 49.1825 12.6847L54.7753 14.738L54.3643 15.8569C53.9908 16.8589 54.3393 17.987 55.2134 18.6032V21.6434H47.1974C46.8094 20.7564 46.0154 20.1123 45.0671 19.9158V18.6648C45.0671 18.3357 44.8006 18.069 44.4713 18.069H42.0694C41.7404 18.069 41.4736 18.3357 41.4736 18.6648V28.1965C41.4736 28.5258 41.7404 28.7923 42.0694 28.7923H44.4713C44.8006 28.7923 45.0671 28.5258 45.0671 28.1965V26.9457C46.0154 26.7489 46.8094 26.1051 47.1974 25.2178H55.2134V25.8136C55.2134 26.8007 56.0134 27.601 57.0005 27.601C57.9875 27.601 58.7878 26.8007 58.7878 25.8136V19.214C59.3293 18.9455 59.7476 18.4797 59.9561 17.9122L60.3671 16.7934L65.4004 18.6403C65.4662 18.6645 65.5354 18.6768 65.6054 18.6768C65.8552 18.6768 66.0787 18.521 66.1649 18.2865L66.3882 17.6782C68.3268 18.043 70.1939 16.7672 70.5584 14.8288C70.6932 14.1125 70.6057 13.3722 70.3077 12.7072L73.9191 10.8528C74.2119 10.7028 74.3276 10.3438 74.1776 10.051C74.1096 9.91804 73.9941 9.81553 73.8541 9.76378L73.8511 9.76553ZM56.4047 19.146L56.8979 19.3248C57.1225 19.4053 57.358 19.4515 57.5962 19.4618V21.6434H56.4047V19.146ZM43.8758 27.601H42.6652V19.2605H43.8758V27.601ZM46.2586 24.0265C46.2576 24.7836 45.7806 25.4584 45.0671 25.7119V21.1496C45.7806 21.4029 46.2576 22.0777 46.2586 22.835V24.0265ZM47.4687 22.835H57.5962V24.0265H47.4687V22.835ZM57.0005 26.4094C56.6714 26.4094 56.4047 26.1426 56.4047 25.8136V25.2178H57.5962V25.8136C57.5962 26.1426 57.3295 26.4094 57.0005 26.4094ZM59.2488 16.3831L58.8378 17.5019C58.6108 18.119 57.9265 18.4355 57.309 18.209L56.1884 17.7985C55.5709 17.5717 55.2539 16.8872 55.4806 16.2694L55.8919 15.1511L59.2488 16.3831ZM65.2521 17.3184L50.1523 11.7736L50.5636 10.6548L59.5111 13.9405C59.7229 14.0175 59.9604 13.9693 60.1251 13.8152L61.797 12.2414L66.4842 13.963L65.2521 17.3184ZM69.2801 14.9901C68.9026 16.0079 67.8873 16.6439 66.807 16.5391L67.7275 14.0315L69.2311 13.2572C69.4664 13.8077 69.4839 14.4273 69.2801 14.9901ZM67.2692 12.9302C67.2377 12.9329 67.2065 12.9384 67.1757 12.9467L61.8642 10.9963C61.6525 10.9186 61.4149 10.9668 61.2504 11.1214L59.5766 12.6954L57.5842 11.9638C57.5843 11.9636 57.5844 11.9634 57.5845 11.9632L58.1099 10.5433C58.2058 10.2843 58.0735 9.99669 57.8145 9.90085C57.5556 9.80501 57.2679 9.93726 57.1721 10.1962L56.6466 11.6162C56.6463 11.6171 56.6459 11.6181 56.6455 11.6191L55.3587 11.1465C55.36 11.1433 55.3612 11.14 55.3624 11.1367L55.8879 9.71682C55.9837 9.45784 55.8515 9.17021 55.5925 9.07437C55.3335 8.97853 55.0459 9.11078 54.9501 9.36976L54.4246 10.7897C54.4231 10.7938 54.4216 10.7978 54.4203 10.8019L53.0692 10.3058C53.0704 10.3028 53.0716 10.2998 53.0727 10.2967L53.5981 8.87679C53.694 8.61781 53.5617 8.33018 53.3028 8.23434C53.0438 8.1385 52.7561 8.27075 52.6603 8.52973L52.1348 9.94966C52.1334 9.95348 52.1321 9.9573 52.1307 9.96113L47.6187 8.3042L49.8773 2.15438L72.1675 10.4126L67.2692 12.9302ZM0.77216 13.812C0.345978 13.812 0.000488281 14.1575 0.000488281 14.5837C0.000488281 15.0099 0.345977 15.3554 0.77216 15.3554H31.2288C31.655 15.3554 32.0005 15.0099 32.0005 14.5837C32.0005 14.1575 31.655 13.812 31.2288 13.812H0.77216ZM82.7722 13.812C82.346 13.812 82.0005 14.1575 82.0005 14.5837C82.0005 15.0099 82.346 15.3554 82.7722 15.3554H113.229C113.655 15.3554 114 15.0099 114 14.5837C114 14.1575 113.655 13.812 113.229 13.812H82.7722Z" fill="#E3B873"/>
</svg>
