<svg width="114" height="28" viewBox="0 0 114 28" fill="none" xmlns="http://www.w3.org/2000/svg">
<path fill-rule="evenodd" clip-rule="evenodd" d="M65.4751 20.4785C66.1529 20.5144 66.8241 20.7342 67.4056 21.1434C69.0381 22.3095 69.5045 24.5484 68.3851 26.2276C68.2918 26.3675 68.1519 26.4142 67.9654 26.4608C67.8254 26.4608 67.6388 26.3675 67.5922 26.2276L66.2862 23.9887C65.5865 23.9421 64.9802 24.3152 64.6537 24.9216L66.0063 27.2071C66.0996 27.347 66.0996 27.5336 66.0063 27.6735C65.913 27.8134 65.7731 27.9067 65.6332 27.9067H65.26C64.2805 27.9067 63.3476 27.5336 62.648 26.8339C61.998 26.1839 61.6306 25.3458 61.5705 24.4481C59.8937 21.9332 58.6357 20.2097 57.6571 19.2311L54.7806 16.3546L44.8769 27.4403C44.5037 27.8135 43.9906 28 43.5242 28C43.0578 28 42.5914 27.8134 42.2182 27.487L41.5652 26.8339C41.192 26.4608 41.0055 25.9944 41.0055 25.4813C41.0055 24.9682 41.192 24.4551 41.5652 24.082L51.4802 13.0154L49.7743 11.3483C48.0485 9.62246 46.416 8.40977 44.5969 7.47689C44.5893 7.47432 44.5823 7.4705 44.575 7.46738C43.9149 7.42026 43.2631 7.19047 42.6846 6.77724C41.0054 5.61118 40.5856 3.3723 41.7051 1.69315C41.7984 1.55322 41.9383 1.45997 42.0783 1.50659C42.2182 1.50659 42.4048 1.59989 42.4514 1.73983L43.8041 3.97876C44.4571 4.02538 45.1101 3.65222 45.3899 3.04588L44.0839 0.713691C43.9906 0.573764 43.9906 0.387206 44.0839 0.24728C44.1306 0.153972 44.2705 0.0606684 44.4104 0.0140452C45.5299 -0.0792623 46.6493 0.293903 47.4422 1.0868C48.105 1.74961 48.4733 2.60821 48.5222 3.5259C49.4541 5.33947 50.6649 6.96817 52.3864 8.68964L53.9526 10.2559L56.0245 7.94331C56.0993 7.86859 56.1744 7.82431 56.273 7.80944C57.005 6.88782 56.9814 5.63518 56.1645 4.81823C54.2987 2.95251 53.226 2.95251 51.1736 2.95251H50.5673C50.3341 2.95251 50.1475 2.81258 50.1009 2.57935C50.0542 2.34611 50.1475 2.15956 50.3807 2.06626C54.3921 0.247169 57.144 0.0139346 59.8493 1.2733C61.1087 1.83302 61.5751 2.29943 62.5546 3.27895L64.2338 4.9581C64.7469 5.47119 65.0733 6.12416 65.1667 6.77719C65.26 7.05705 65.26 7.29028 65.26 7.47684C65.26 7.85 65.26 7.94331 65.6331 8.26979C65.8197 8.12986 66.0529 7.98993 66.2861 7.98993C66.5194 7.98993 66.7526 8.08324 66.9392 8.26979L68.5717 9.90232C68.8516 10.1822 68.9915 10.5087 68.9915 10.8818C68.9915 11.255 68.8516 11.6281 68.5717 11.8613L65.26 15.173C65.0268 15.4995 64.6537 15.6394 64.2805 15.6394C63.9073 15.6394 63.5342 15.4995 63.301 15.2196L61.6685 13.5871C61.4819 13.4006 61.3886 13.1207 61.3886 12.8875C61.3886 12.6543 61.4819 12.4211 61.6685 12.2811C61.2953 11.9546 61.2021 11.9546 60.8289 11.9546C60.6423 11.9546 60.4557 11.9546 60.1759 11.908C59.805 11.8551 59.4342 11.7267 59.089 11.5318L57.2675 13.5707L60.2692 16.5724C61.2463 17.5495 62.92 18.8054 65.4751 20.4785ZM52.8995 2.01969C54.1589 2.15961 55.2783 2.62608 56.7709 4.07201C57.8904 5.19144 57.9836 6.9639 56.9575 8.22322L58.9632 10.2289C59.3363 10.602 59.7561 10.8353 60.2692 10.8819C60.5024 10.9285 60.689 10.9285 60.8289 10.9285C61.3419 10.9285 61.7151 10.9751 62.2748 11.5349C62.4614 11.7214 62.5547 12.0013 62.5547 12.2345C62.6013 12.5144 62.508 12.7476 62.3214 12.8875L63.954 14.5201C64.1406 14.7066 64.4204 14.7066 64.607 14.5201L67.9187 11.2084C68.012 11.1151 68.0586 11.0218 68.0586 10.8819C68.0586 10.742 68.012 10.6487 67.9187 10.5554L66.2861 8.92287C66.1462 9.10942 65.913 9.20273 65.6331 9.20273C65.3999 9.20273 65.12 9.10942 64.9335 8.92287C64.3738 8.36315 64.3271 7.99004 64.3271 7.47694C64.3271 7.33702 64.3271 7.15046 64.2805 6.91723C64.2338 6.45081 64.0006 5.9844 63.6275 5.61123L61.9483 3.93207C60.9688 2.95257 60.5957 2.57941 59.4762 2.11299C57.5172 1.22673 55.5582 1.18011 52.8995 2.01969ZM43.1044 4.63172L42.1249 2.95257C41.7984 4.07201 42.2182 5.33137 43.1977 6.03113C44.1306 6.6841 45.3899 6.6841 46.3228 6.07776C46.91 5.68628 47.3319 5.09743 47.5079 4.42205C47.5561 4.21893 47.5822 4.00822 47.5822 3.7922C47.5822 3.74864 47.5873 3.70999 47.5963 3.67408C47.5781 2.96634 47.2702 2.30747 46.7893 1.78651C46.3695 1.36672 45.8564 1.08686 45.2967 0.993553L46.3229 2.76601C46.4162 2.90594 46.4162 3.04588 46.3229 3.1858L46.2296 3.41904C45.7632 4.35187 44.7837 4.91159 43.7108 4.86496H43.4776C43.3377 4.86496 43.1977 4.77166 43.1044 4.63172ZM46.1362 7.24371C47.6288 8.12997 49.0281 9.24941 50.4274 10.6953L52.0791 12.347L53.3354 10.9447L51.7333 9.34266C50.3341 7.94336 49.2146 6.54406 48.3284 5.05146C48.0486 5.79773 47.5821 6.40413 46.8825 6.87055C46.6493 7.01047 46.3694 7.15041 46.1362 7.24371ZM42.8712 26.7873C43.2444 27.1604 43.8507 27.1138 44.2239 26.7406L54.2785 15.4914C54.3013 15.4273 54.3388 15.3663 54.3921 15.313L56.2578 13.2141C56.3063 13.1656 56.3549 13.13 56.4099 13.1067L58.3347 10.9532L56.3757 8.99414L44.3782 22.4172L45.1566 23.1957C45.3432 23.3823 45.3432 23.6622 45.1566 23.8487C45.0634 23.942 44.9701 23.9887 44.8302 23.9887C44.6902 23.9887 44.597 23.942 44.5037 23.8487L43.7617 23.1068L43.1453 23.7964L43.8507 24.5018C44.0372 24.6884 44.0372 24.9682 43.8507 25.1548C43.7574 25.2481 43.6641 25.2947 43.5242 25.2947C43.3842 25.2947 43.291 25.2481 43.1977 25.1548L42.529 24.4861L42.2648 24.7816C42.0316 25.0148 41.9383 25.248 41.9383 25.5279C41.9383 25.7611 42.0316 25.9944 42.2182 26.1809L42.8712 26.7873ZM56.6953 14.2113L55.4188 15.6401L58.3568 18.578C58.6477 18.8689 58.9639 19.2206 59.3067 19.6337L59.6628 19.2777C59.8494 19.0911 60.1292 19.0911 60.3158 19.2777C60.5023 19.4643 60.5023 19.7441 60.3158 19.9307L59.8871 20.3593C60.0677 20.5926 60.255 20.8407 60.4488 21.1037L60.9688 20.5837C61.1554 20.3972 61.4352 20.3972 61.6218 20.5837C61.8083 20.7703 61.8083 21.0502 61.6218 21.2367L60.9967 21.8618C61.2419 22.2072 61.4968 22.5739 61.7617 22.9625C61.7755 22.9258 61.7901 22.8893 61.8048 22.8528L61.8105 22.8383C61.824 22.805 61.8382 22.772 61.8526 22.7389C61.8735 22.69 61.8954 22.6417 61.9184 22.5938C61.9344 22.5601 61.951 22.5265 61.9679 22.4931C61.972 22.4851 61.9759 22.477 61.9801 22.4691C62.2657 21.914 62.6756 21.4118 63.2543 21.0501C63.5341 20.8636 63.814 20.7236 64.0938 20.6303C61.9949 19.231 60.549 18.1116 59.7094 17.2254L56.6953 14.2113ZM66.9391 23.289L67.9186 24.9682C68.2452 23.8487 67.8254 22.5894 66.8457 21.8898C66.3793 21.5632 65.8196 21.3767 65.2599 21.3767C64.7001 21.3767 64.187 21.5166 63.7206 21.8431C63.4279 22.0383 63.1767 22.283 62.9758 22.5625C62.6488 23.0311 62.4613 23.5843 62.4613 24.1752C62.4613 24.2162 62.4568 24.2528 62.4488 24.2869C62.4775 24.9793 62.7824 25.6231 63.2542 26.1342C63.674 26.554 64.1871 26.8339 64.7468 26.9272L63.7207 25.1547C63.6274 25.0148 63.6274 24.8749 63.7207 24.7349L63.814 24.5017C64.2804 23.5689 65.2599 22.9625 66.3327 23.0558H66.5659C66.7059 23.0558 66.8458 23.1491 66.9391 23.289ZM0.000610352 13.7714C0.000610352 13.3452 0.3461 12.9998 0.772285 12.9998H31.2289C31.6551 12.9998 32.0006 13.3452 32.0006 13.7714C32.0006 14.1976 31.6551 14.5431 31.2289 14.5431H0.772278C0.3461 14.5431 0.000610352 14.1976 0.000610352 13.7714ZM82.0006 13.7714C82.0006 13.3452 82.3461 12.9998 82.7723 12.9998H113.229C113.655 12.9998 114.001 13.3452 114.001 13.7714C114.001 14.1976 113.655 14.5431 113.229 14.5431H82.7723C82.3461 14.5431 82.0006 14.1976 82.0006 13.7714Z" fill="#E3B873"/>
</svg>
